<?xml version="1.0" encoding="utf-8"?>
<!-- Generator: Adobe Illustrator 16.0.0, SVG Export Plug-In . SVG Version: 6.00 Build 0)  -->
<!DOCTYPE svg PUBLIC "-//W3C//DTD SVG 1.1//EN" "http://www.w3.org/Graphics/SVG/1.1/DTD/svg11.dtd" [
	<!ENTITY ns_flows "http://ns.adobe.com/Flows/1.0/">
	<!ENTITY ns_extend "http://ns.adobe.com/Extensibility/1.0/">
	<!ENTITY ns_ai "http://ns.adobe.com/AdobeIllustrator/10.0/">
	<!ENTITY ns_graphs "http://ns.adobe.com/Graphs/1.0/">
]>
<svg version="1.1" id="Layer_1" xmlns:x="&ns_extend;" xmlns:i="&ns_ai;" xmlns:graph="&ns_graphs;"
	 xmlns="http://www.w3.org/2000/svg" xmlns:xlink="http://www.w3.org/1999/xlink" xmlns:a="http://ns.adobe.com/AdobeSVGViewerExtensions/3.0/"
	 x="0px" y="0px" width="100px" height="100px" viewBox="0 0 100 100" style="enable-background:new 0 0 100 100;"
	 xml:space="preserve">
<style type="text/css">
<![CDATA[
	.st0{fill:#009FE3;}
]]>
</style>
<g>
	<g>
		<path class="st0" d="M73,30.5H28c-0.8,0-1.5,0.7-1.5,1.5v36c0,0.8,0.7,1.5,1.5,1.5h45c0.8,0,1.5-0.7,1.5-1.5V32
			C74.5,31.2,73.8,30.5,73,30.5z M71.5,66.5h-42V44.2h42V66.5z M71.5,41.2h-42v-7.7h42V41.2z M34.3,38.8c0.8,0,1.4-0.6,1.4-1.4
			S35.1,36,34.3,36c-0.8,0-1.4,0.6-1.4,1.4S33.6,38.8,34.3,38.8z M39.7,38.8c0.8,0,1.4-0.6,1.4-1.4S40.4,36,39.7,36
			c-0.8,0-1.4,0.6-1.4,1.4S38.9,38.8,39.7,38.8z M45,38.8c0.8,0,1.4-0.6,1.4-1.4S45.8,36,45,36c-0.8,0-1.4,0.6-1.4,1.4
			S44.3,38.8,45,38.8z"/>
	</g>
</g>
</svg>
