<?xml version="1.0" encoding="utf-8"?>
<!-- Generator: Adobe Illustrator 16.0.0, SVG Export Plug-In . SVG Version: 6.00 Build 0)  -->
<!DOCTYPE svg PUBLIC "-//W3C//DTD SVG 1.1//EN" "http://www.w3.org/Graphics/SVG/1.1/DTD/svg11.dtd" [
	<!ENTITY ns_flows "http://ns.adobe.com/Flows/1.0/">
	<!ENTITY ns_extend "http://ns.adobe.com/Extensibility/1.0/">
	<!ENTITY ns_ai "http://ns.adobe.com/AdobeIllustrator/10.0/">
	<!ENTITY ns_graphs "http://ns.adobe.com/Graphs/1.0/">
]>
<svg version="1.1" id="Layer_1" xmlns:x="&ns_extend;" xmlns:i="&ns_ai;" xmlns:graph="&ns_graphs;"
	 xmlns="http://www.w3.org/2000/svg" xmlns:xlink="http://www.w3.org/1999/xlink" xmlns:a="http://ns.adobe.com/AdobeSVGViewerExtensions/3.0/"
	 x="0px" y="0px" width="100px" height="100px" viewBox="0 0 100 100" style="enable-background:new 0 0 100 100;"
	 xml:space="preserve">
<style type="text/css">
<![CDATA[
	.st0{fill:#009640;}
]]>
</style>
<path class="st0" d="M50.5,74c-8.3,0-15-6.7-15-15V41c0-8.3,6.7-15,15-15s15,6.7,15,15v18C65.5,67.3,58.8,74,50.5,74z M50.5,29
	c-6.6,0-12,5.4-12,12v18c0,6.6,5.4,12,12,12c6.6,0,12-5.4,12-12V41C62.5,34.4,57.1,29,50.5,29z M50.7,46.5c-2.1,0-3.8-1.7-3.8-3.8
	v-4.5c0-2.1,1.7-3.8,3.8-3.8c2.1,0,3.8,1.7,3.8,3.8v4.5C54.4,44.8,52.8,46.5,50.7,46.5z M50.7,37.5c-0.4,0-0.8,0.3-0.8,0.8v4.5
	c0,0.4,0.3,0.8,0.8,0.8c0.4,0,0.8-0.3,0.8-0.8v-4.5C51.4,37.9,51.1,37.5,50.7,37.5z"/>
<g>
</g>
</svg>
